<?xml version="1.0" standalone="no"?>
<!DOCTYPE svg PUBLIC "-//W3C//DTD SVG 20010904//EN"
 "http://www.w3.org/TR/2001/REC-SVG-20010904/DTD/svg10.dtd">
<svg version="1.0" xmlns="http://www.w3.org/2000/svg"
 width="214.000000pt" height="235.000000pt" viewBox="0 0 214.000000 235.000000"
 preserveAspectRatio="xMidYMid meet">

<g transform="translate(0.000000,235.000000) scale(0.100000,-0.100000)"
fill="#e20713" stroke="none">
<path d="M960 2057 c-36 -19 -236 -134 -445 -254 -328 -189 -382 -224 -397
-254 -16 -30 -18 -71 -18 -397 0 -307 2 -369 15 -396 14 -28 78 -69 448 -282
300 -173 443 -250 468 -252 45 -5 19 -18 513 266 361 208 410 239 422 268 11
26 14 110 14 401 0 341 -1 370 -19 398 -14 23 -126 92 -449 278 -237 136 -443
250 -459 253 -21 4 -46 -4 -93 -29z m737 -554 c3 -10 -637 -377 -657 -377 -20
0 -660 367 -657 376 1 4 150 93 330 197 l328 188 327 -188 c180 -104 328 -192
329 -196z m-1250 -259 c81 -47 149 -87 151 -89 3 -3 -294 -175 -303 -175 -3 0
-5 79 -5 175 0 96 2 175 4 175 2 0 71 -39 153 -86z m1339 -262 c-5 -5 -58 24
-214 115 l-93 55 153 88 153 89 3 -171 c1 -94 0 -173 -2 -176z m-883 -2 c69
-40 114 -60 136 -60 21 0 67 20 136 60 57 33 108 60 114 60 5 0 100 -53 211
-117 185 -106 201 -118 184 -130 -11 -8 -160 -95 -331 -194 l-313 -181 -325
187 c-179 103 -327 191 -330 195 -5 9 381 239 403 240 7 0 59 -27 115 -60z"/>
</g>
</svg>
